<?xml version="1.0" standalone="no"?>
<!DOCTYPE svg PUBLIC "-//W3C//DTD SVG 20010904//EN"
 "http://www.w3.org/TR/2001/REC-SVG-20010904/DTD/svg10.dtd">
<svg version="1.0" xmlns="http://www.w3.org/2000/svg"
 width="300.000000pt" height="300.000000pt" viewBox="0 0 300.000000 300.000000"
 preserveAspectRatio="xMidYMid meet">
<metadata>
Created by potrace 1.10, written by Peter Selinger 2001-2011
</metadata>
<g transform="translate(0.000000,300.000000) scale(0.100000,-0.100000)"
fill="#000000" stroke="none">
<path d="M1610 2255 c0 -21 -4 -24 -23 -20 -21 6 -22 3 -22 -42 l0 -48 52 0
c61 0 77 -10 39 -25 -38 -14 -23 -33 20 -26 26 5 35 3 43 -13 8 -15 7 -20 -5
-25 -21 -8 -3 -32 31 -40 32 -8 33 -39 3 -54 -16 -7 -18 -11 -7 -11 40 -2 72
-73 44 -98 -4 -5 -5 -2 -1 5 5 8 1 12 -11 12 -15 0 -16 2 -3 10 13 8 13 10 -2
10 -9 0 -25 3 -35 6 -10 3 1 -11 23 -33 37 -34 43 -44 48 -95 4 -34 2 -58 -3
-58 -5 0 -17 -3 -26 -6 -16 -6 -16 -5 0 25 19 38 17 76 -5 76 -11 0 -15 -12
-16 -45 0 -25 -6 -55 -13 -65 -11 -19 -12 -19 -6 3 4 13 2 22 -4 22 -6 0 -11
-15 -11 -33 0 -30 -49 -117 -65 -117 -3 0 -5 20 -5 45 0 39 3 47 25 55 27 10
43 36 30 48 -4 4 -17 -5 -29 -20 -32 -41 -42 -34 -11 7 15 19 25 42 23 52 -3
14 -9 9 -24 -20 l-20 -38 -27 55 c-32 64 -47 78 -47 41 0 -14 13 -38 30 -57
34 -35 33 -48 -2 -24 -31 22 -45 20 -23 -4 10 -11 24 -20 31 -20 7 0 18 -9 24
-19 11 -22 14 -121 3 -121 -5 0 -19 21 -33 47 -27 50 -57 72 -48 35 3 -12 2
-22 -3 -24 -5 -2 -6 -13 -3 -25 5 -17 14 -23 35 -23 45 0 53 -28 28 -95 -11
-31 -19 -59 -16 -61 3 -3 13 16 23 43 21 55 29 63 65 63 15 0 32 6 38 14 19
23 -4 29 -40 11 -44 -23 -49 -10 -11 28 28 28 35 30 52 19 28 -17 39 -14 15 4
-12 10 -14 14 -5 12 8 -3 28 1 43 9 16 8 30 13 30 11 1 -2 1 -81 -1 -176 -3
-173 -3 -173 -28 -184 -36 -17 -39 -4 -9 36 25 33 27 56 4 56 -6 0 -17 7 -25
15 -20 20 -44 19 -44 -1 0 -11 -6 -13 -19 -9 -27 8 -36 -12 -17 -40 18 -28 33
-32 33 -11 0 8 -5 14 -11 13 -5 -1 -12 7 -14 18 -3 16 -1 18 9 8 17 -17 29
-16 29 2 0 8 7 15 15 15 9 0 15 -9 15 -22 0 -18 2 -20 10 -8 6 10 12 12 20 4
7 -7 4 -16 -11 -30 -13 -10 -20 -14 -17 -9 4 6 0 18 -7 28 -13 18 -14 17 -26
-5 -14 -26 -14 -26 9 -52 16 -17 16 -19 -2 -30 -92 -54 -145 -97 -171 -138
-16 -26 -33 -47 -36 -47 -3 -1 -11 16 -17 37 -17 57 9 131 49 139 16 3 34 12
40 19 9 11 6 14 -20 14 -41 0 -32 16 14 24 19 4 37 11 40 16 9 14 -29 12 -43
-2 -16 -16 -21 -7 -11 19 5 13 25 30 49 39 22 9 37 20 34 25 -3 5 1 6 9 4 7
-3 22 3 32 15 22 24 18 25 -28 5 -20 -8 -48 -15 -62 -15 -17 0 -24 -4 -19 -12
4 -7 3 -8 -4 -4 -7 4 -12 2 -12 -5 0 -7 -3 -10 -6 -7 -3 4 -1 16 5 27 13 23
-6 82 -29 96 -18 11 -4 -92 16 -123 13 -19 13 -25 1 -43 -13 -17 -15 -18 -21
-4 -9 24 -7 32 4 15 5 -8 10 -10 10 -4 0 15 -27 50 -35 43 -3 -4 1 -26 9 -50
17 -49 14 -58 -10 -38 -16 13 -17 11 -11 -27 4 -27 2 -54 -6 -74 l-14 -31 -25
69 -24 69 28 32 c27 30 40 91 20 91 -12 0 -36 -29 -54 -64 l-15 -30 -12 23
c-15 27 -6 95 14 111 9 7 27 9 45 5 23 -5 30 -3 30 8 0 9 6 18 13 21 8 3 6 9
-7 20 -16 13 -17 19 -8 28 18 18 15 28 -8 28 -12 0 -17 5 -14 14 3 8 1 17 -4
20 -12 7 -23 -30 -15 -50 4 -11 9 -12 19 -3 8 7 14 7 14 1 0 -5 -6 -15 -14
-21 -11 -9 -15 -8 -20 4 -7 20 -26 10 -26 -14 0 -10 -7 -24 -15 -31 -8 -7 -15
-29 -16 -49 -2 -71 -17 9 -18 95 -1 70 2 85 21 110 12 15 24 34 25 41 2 7 4
19 6 26 5 22 18 37 28 32 10 -7 25 23 15 32 -10 10 -37 -19 -58 -64 -27 -58
-34 -48 -14 21 21 71 37 86 92 86 34 0 51 6 71 25 23 20 24 25 11 30 -14 6
-14 10 -2 33 22 42 18 55 -15 50 -22 -3 -31 0 -34 14 -4 12 -15 18 -36 18 -23
0 -31 5 -31 18 -1 16 -2 15 -15 -2 -19 -25 -36 -113 -36 -184 0 -44 -3 -53
-11 -39 -5 10 -8 28 -5 40 2 12 1 33 -3 47 l-7 25 -8 -28 c-4 -17 -2 -44 7
-71 12 -35 12 -54 4 -90 -6 -25 -13 -46 -16 -46 -4 0 -12 22 -18 48 -7 26 -24
71 -37 101 l-25 52 22 38 c14 25 19 44 14 57 -7 19 -8 19 -22 0 -8 -11 -14
-32 -14 -48 0 -32 -10 -35 -33 -10 -25 27 -21 44 15 74 18 14 30 30 25 34 -4
4 -18 -3 -32 -16 -30 -28 -31 -26 -5 25 21 42 26 75 11 75 -22 0 -41 -47 -42
-100 -1 -55 -1 -55 -14 -25 -19 41 -18 66 5 116 21 46 26 89 11 89 -11 0 -36
-59 -27 -67 3 -3 6 1 6 10 0 9 4 18 10 22 5 3 5 -6 -1 -24 l-11 -30 -24 24
c-14 14 -29 25 -34 25 -18 0 -10 -27 13 -46 12 -10 16 -12 10 -4 -16 17 -18
39 -2 23 5 -5 13 -34 15 -63 3 -30 10 -62 15 -72 17 -32 -4 -20 -57 33 -50 49
-51 52 -42 86 11 40 3 103 -13 103 -9 0 -7 -17 8 -57 3 -7 0 -13 -6 -13 -6 0
-11 -6 -11 -14 0 -27 -30 -27 -40 0 -15 37 -12 52 6 29 8 -11 12 -26 9 -35 -4
-9 -3 -11 3 -5 5 6 12 26 16 45 5 31 4 33 -8 17 -12 -15 -15 -15 -26 -2 -19
23 -43 20 -30 -4 15 -28 12 -41 -7 -41 -18 -1 -53 -22 -53 -32 0 -3 14 -11 31
-18 19 -8 28 -18 25 -27 -4 -8 -6 -16 -6 -17 0 -1 -27 0 -60 2 -33 2 -60 2
-60 -2 0 -3 15 -20 33 -36 l32 -29 -33 -1 c-28 0 -35 5 -43 30 -12 34 -21 37
-39 15 -10 -12 -10 -18 0 -29 16 -21 76 -39 100 -31 18 6 20 2 20 -49 0 -31 3
-56 8 -56 4 0 17 18 29 40 22 38 24 39 50 24 16 -7 33 -14 38 -14 16 0 5 73
-13 86 -13 9 -13 12 1 17 18 7 117 -20 117 -31 0 -4 -15 -14 -33 -22 -20 -9
-33 -24 -35 -37 -5 -32 13 -29 40 7 32 44 60 39 103 -16 50 -66 45 -80 -16
-48 -17 8 -40 14 -52 12 -37 -6 39 -41 79 -36 40 5 35 -7 -13 -27 -28 -12 -34
-18 -25 -27 9 -9 19 -6 43 11 17 13 35 19 39 15 21 -22 53 -168 60 -269 4 -60
7 -111 6 -112 -1 -2 -23 21 -48 50 -54 62 -67 106 -43 143 8 13 13 29 9 35 -4
8 -9 7 -15 -2 -5 -8 -6 5 -3 34 5 32 3 47 -5 47 -12 0 -14 -8 -11 -62 2 -47
-4 -48 -27 -5 -14 26 -18 28 -21 14 -2 -11 7 -31 21 -45 13 -15 27 -44 30 -65
l6 -38 -27 22 c-28 21 -50 67 -51 105 -1 12 -10 32 -21 45 -18 23 -19 23 -20
4 -1 -16 -4 -15 -14 8 -25 57 -97 113 -96 75 1 -7 7 -31 15 -53 20 -55 20 -55
-29 -49 -26 4 -46 2 -50 -4 -7 -12 61 -72 81 -72 19 0 16 -14 -9 -45 l-22 -28
34 7 c19 3 53 15 74 26 l39 19 56 -43 c31 -24 65 -53 76 -66 l19 -21 -29 7
c-17 3 -43 21 -59 38 -19 20 -31 26 -34 18 -6 -18 5 -42 19 -42 8 0 7 6 -2 18
-13 15 -12 16 3 3 21 -16 15 -29 -18 -41 -13 -5 -24 -16 -24 -25 0 -20 12 -19
43 5 29 23 45 26 27 5 -6 -8 -8 -20 -4 -26 4 -8 3 -9 -4 -5 -7 4 -12 1 -12 -8
0 -28 21 -17 35 18 13 30 17 33 43 27 16 -3 41 -20 55 -37 l26 -31 -39 10
c-27 8 -45 8 -62 0 l-23 -11 30 -12 c17 -7 50 -14 74 -15 44 -1 52 -8 66 -54
6 -20 5 -23 -11 -17 -23 9 -104 -4 -104 -16 0 -6 11 -8 25 -6 13 3 22 1 19 -3
-3 -5 17 -9 44 -9 l48 0 16 -51 c9 -28 15 -57 12 -65 -2 -8 -6 -21 -9 -30 -4
-11 -15 -5 -46 28 -30 31 -43 39 -47 29 -3 -9 12 -29 37 -50 23 -20 41 -42 41
-49 0 -6 -35 17 -77 53 -43 36 -111 82 -150 103 -54 27 -73 42 -73 57 0 23
-35 85 -49 85 -4 0 -5 -18 -1 -40 9 -48 6 -52 -28 -37 -74 31 -95 85 -42 107
17 7 33 16 36 21 7 11 -18 49 -32 49 -7 0 -14 9 -17 21 -11 41 -27 7 -27 -58
0 -56 -2 -64 -15 -53 -7 6 -26 35 -40 63 l-26 52 31 26 c16 14 30 33 30 42 0
20 -11 22 -28 5 -19 -19 -14 -32 6 -17 15 13 16 12 4 -2 -18 -24 -51 -13 -89
30 -17 20 -34 33 -38 29 -5 -4 11 -26 34 -49 39 -40 52 -57 32 -44 -5 3 -12 1
-16 -5 -3 -5 1 -10 9 -10 8 0 18 -5 21 -10 4 -6 -5 -10 -24 -8 -16 1 -27 6
-25 10 3 4 -2 8 -10 8 -9 0 -16 -4 -16 -10 0 -14 39 -32 56 -26 8 3 25 -12 44
-39 17 -25 28 -45 25 -45 -4 0 -28 9 -55 21 -33 14 -56 32 -70 56 -13 22 -26
33 -35 30 -8 -4 -21 7 -34 29 -11 19 -27 34 -35 34 -23 0 -7 -38 33 -80 l36
-38 -31 5 c-18 3 -34 0 -38 -6 -5 -8 10 -11 49 -11 49 0 115 -21 115 -36 0 -3
-34 -2 -77 2 -83 8 -96 -6 -23 -26 25 -7 40 -17 40 -26 0 -18 22 -14 28 6 3 8
0 10 -9 5 -8 -5 -11 -4 -6 1 5 5 12 9 15 9 4 1 17 6 30 13 18 10 31 11 57 2
50 -17 57 -35 11 -27 -41 7 -66 1 -66 -15 0 -7 20 -9 55 -5 30 3 57 2 60 -2 2
-5 -40 -11 -94 -15 -111 -8 -167 2 -243 40 -27 14 -51 24 -52 22 -1 -2 -30
-40 -64 -86 -62 -84 -68 -100 -63 -179 4 -56 -16 -99 -54 -118 -39 -18 -46
-48 -16 -65 25 -13 324 -13 596 0 116 6 510 14 876 20 383 5 677 13 691 19 20
8 28 19 33 52 5 28 4 44 -3 47 -6 2 -16 18 -22 36 -6 18 -21 38 -33 43 -15 7
-28 27 -36 54 -20 69 -35 86 -83 94 -73 12 -70 20 17 44 54 15 85 28 85 37 0
19 -161 192 -180 193 -22 1 -109 -41 -176 -87 -62 -42 -123 -75 -161 -86 -34
-11 -30 29 5 51 41 25 92 75 92 90 0 15 -42 -3 -94 -41 -23 -17 -30 -18 -34
-7 -7 22 -70 87 -76 80 -11 -11 24 -93 51 -121 39 -41 24 -63 -62 -93 -39 -14
-73 -25 -77 -25 -4 0 -6 126 -3 281 l4 280 32 40 c38 48 35 68 -6 34 -16 -14
-22 -22 -12 -19 23 8 22 -3 -3 -16 -18 -10 -19 -7 -15 56 4 55 2 65 -10 60
-12 -4 -14 2 -9 34 6 39 6 40 -25 40 -30 0 -31 1 -31 44 0 35 -4 45 -19 49
-12 3 -22 -1 -26 -12 -11 -28 -35 17 -35 66 0 32 -5 45 -19 53 -28 14 -31 13
-31 -15z m35 -33 c1 -44 -20 -40 -23 4 -2 26 1 35 10 32 7 -3 13 -19 13 -36z
m-30 -42 c-3 -5 2 -10 12 -11 10 0 5 -5 -12 -10 -18 -5 -33 -5 -39 1 -7 7 -4
10 7 10 9 0 17 5 17 10 0 6 5 10 11 10 5 0 7 -4 4 -10z m115 -56 c0 -23 -2
-24 -15 -10 -8 8 -15 19 -15 25 0 6 7 11 15 11 9 0 15 -10 15 -26z m-730 -44
c-14 -9 -13 -11 9 -14 5 0 13 -4 17 -8 10 -11 -38 -10 -55 1 -18 12 -5 31 22
31 18 0 19 -2 7 -10z m50 -60 c-7 -12 -17 -16 -31 -13 -14 4 -20 2 -16 -5 9
-13 30 -10 52 8 14 11 19 11 37 -7 l21 -21 -57 2 c-31 2 -59 6 -62 9 -11 11 5
37 28 46 30 11 40 4 28 -19z m-120 -30 c-20 -6 -15 -8 22 -8 54 1 98 -31 98
-69 0 -24 -7 -27 -34 -17 -16 6 -24 37 -8 32 4 -2 7 2 7 7 0 6 -10 10 -22 10
-16 -1 -23 5 -23 19 0 19 0 19 -14 1 -13 -18 -15 -18 -40 -2 -35 23 -33 37 7
36 30 -1 31 -1 7 -9z m520 -41 c9 -16 8 -26 -5 -46 -9 -13 -14 -27 -12 -30 3
-2 10 4 16 15 9 18 58 39 67 29 2 -2 -8 -14 -23 -28 -20 -18 -25 -20 -20 -6 9
24 0 21 -14 -4 -9 -17 -8 -20 3 -13 7 4 4 -2 -6 -14 -30 -34 -37 -27 -31 31 3
38 2 48 -6 37 -9 -12 -10 -12 -5 3 3 10 6 25 6 33 0 21 18 17 30 -7z m39 12
c8 -5 11 -16 7 -27 -6 -16 -7 -16 -21 2 -24 31 -17 44 14 25z m-529 -38 c0
-15 2 -16 10 -3 5 8 12 11 16 8 8 -9 -23 -58 -36 -58 -6 0 -10 16 -10 35 0 19
5 35 10 35 6 0 10 -8 10 -17z m594 -5 c-7 -24 -22 -38 -39 -37 -5 0 -4 3 3 6
6 2 12 16 12 29 0 15 6 24 16 24 11 0 14 -6 8 -22z m-27 -54 c21 -6 21 -6 2
-25 -12 -12 -31 -18 -51 -18 -31 2 -31 2 -5 6 15 2 27 8 27 13 0 5 -8 6 -17 3
-16 -6 -16 -5 -4 10 15 19 17 19 48 11z m-444 -151 c12 -21 29 -51 37 -67 l15
-28 6 23 c4 13 8 20 9 14 6 -35 6 -57 -2 -61 -4 -3 -5 -10 -2 -16 4 -6 0 -6
-13 1 -11 6 -23 8 -26 4 -13 -12 -75 9 -107 36 l-35 30 47 -2 c25 -1 44 -4 42
-6 -2 -2 4 -10 14 -18 15 -11 14 -12 -10 -3 -41 14 -34 3 8 -15 46 -19 51 -19
32 3 -36 40 -71 142 -49 142 6 0 21 -17 34 -37z m725 -41 c2 -14 -2 -22 -11
-22 -8 0 -21 -8 -28 -17 -11 -15 -11 -16 1 -5 8 6 19 12 25 12 5 0 1 -7 -9
-15 -10 -8 -22 -12 -27 -10 -4 3 -19 1 -34 -5 l-26 -10 17 29 c10 16 34 37 53
45 22 10 26 13 11 10 -19 -4 -22 -3 -10 5 21 15 34 8 38 -17z m-690 -111 c10
-6 5 -11 -19 -20 -51 -18 -66 -15 -44 9 19 21 41 25 63 11z m-341 -124 c5 1
10 -5 10 -13 0 -7 -4 -14 -8 -14 -10 0 -59 70 -59 84 0 5 11 -6 23 -25 13 -19
28 -33 34 -32z m703 52 c0 -6 -9 -8 -22 -4 -23 7 -23 7 -3 -9 23 -18 13 -21
-16 -5 -11 5 -17 14 -14 20 8 13 55 12 55 -2z m964 -77 l79 -85 -89 -28 c-84
-26 -100 -28 -279 -29 -215 0 -279 -11 -390 -65 -103 -50 -184 -119 -219 -188
-39 -76 -61 -77 -33 0 43 117 147 189 407 283 156 56 208 80 255 115 58 43
140 85 165 84 18 -1 47 -25 104 -87z m-457 -7 c0 -8 -3 -15 -7 -15 -8 0 -33
28 -45 50 -8 13 -7 13 8 1 11 -9 17 -9 17 -2 0 6 -9 16 -20 23 -11 7 -20 17
-20 23 1 16 67 -63 67 -80z m93 56 c0 -5 -8 -11 -17 -14 -10 -4 -29 -14 -43
-24 -13 -10 -21 -12 -16 -5 7 11 64 52 74 52 1 0 2 -4 2 -9z m-1060 -56 c-11
-13 -10 -14 4 -9 27 10 18 -12 -11 -25 -22 -10 -25 -10 -15 2 7 8 9 17 6 20
-8 8 5 27 18 27 6 0 6 -6 -2 -15z m429 -61 c-31 -33 -36 -22 -8 17 13 19 25
27 27 20 2 -7 -6 -23 -19 -37z m-773 -61 c55 -26 68 -28 199 -28 155 -1 194
-9 311 -68 86 -43 181 -114 235 -175 35 -40 38 -47 23 -50 -12 -2 -45 22 -89
65 -130 126 -223 172 -345 173 -61 0 -101 -8 -220 -46 -95 -29 -172 -47 -224
-51 l-79 -6 6 33 c6 25 110 180 122 180 2 0 29 -12 61 -27z m1728 -45 c61 -15
78 -33 101 -107 6 -20 4 -23 -9 -18 -10 4 -97 23 -194 43 -229 47 -379 52
-485 16 -83 -29 -176 -90 -222 -146 -36 -44 -44 -63 -22 -50 6 4 9 3 4 -1 -4
-5 -16 -10 -27 -12 -20 -3 -20 -3 -1 36 31 59 66 96 139 145 76 50 149 82 237
102 79 17 396 12 479 -8z m-1230 -92 c48 -23 102 -62 151 -108 72 -67 76 -72
54 -80 -18 -7 -29 -3 -53 21 -49 47 -175 120 -245 141 -79 25 -120 25 -196 1
-171 -55 -215 -65 -302 -69 -89 -4 -93 -4 -93 17 0 19 6 21 63 21 60 0 149 21
322 75 115 36 199 31 299 -19z m1111 -3 c253 -48 235 -41 173 -70 -90 -43
-163 -34 -303 34 -38 19 -94 41 -122 48 -113 30 -287 -26 -395 -127 l-53 -49
70 52 c80 60 126 82 216 105 93 24 155 15 269 -39 156 -73 232 -82 321 -37 59
30 92 27 107 -12 6 -17 9 -34 7 -37 -3 -3 -56 -5 -118 -5 -92 -1 -131 4 -222
28 -245 63 -527 37 -614 -58 -30 -32 -37 -33 -36 -2 0 49 125 148 228 182 116
39 220 36 472 -13z m-1131 -69 c38 -19 94 -51 124 -71 43 -29 51 -38 38 -45
-33 -18 -244 -29 -431 -22 l-190 7 52 23 c168 74 372 82 513 19 48 -22 52 -22
32 -5 -38 32 -119 52 -233 57 -120 6 -225 -15 -336 -67 -53 -24 -81 -30 -175
-36 -73 -5 -109 -4 -105 3 4 6 41 13 83 16 80 6 126 24 291 118 119 67 208 67
337 3z m346 -53 c0 -10 -6 -25 -13 -35 -12 -16 -14 -16 -26 -2 -11 13 -11 25
0 66 l13 50 13 -31 c7 -17 13 -39 13 -48z m-715 50 c-46 -43 -220 -111 -286
-111 -26 0 -27 1 -16 35 10 33 13 35 56 35 58 1 193 25 218 39 23 13 41 15 28
2z m1455 -52 c114 -28 135 -30 243 -26 64 3 117 2 117 -2 0 -14 -313 -32 -505
-29 -104 2 -257 -1 -339 -6 -162 -10 -170 -7 -93 39 72 41 139 54 302 54 136
1 163 -2 275 -30z m350 -70 c0 -4 -6 -11 -12 -16 -12 -7 -350 -15 -1118 -28
-157 -2 -422 -9 -590 -15 -327 -12 -465 -6 -465 20 0 13 46 15 360 13 252 -2
409 2 524 12 108 10 219 13 330 9 91 -3 202 -2 246 3 101 10 725 12 725 2z"/>
<path d="M2051 1883 c-8 -16 -7 -30 4 -57 19 -46 19 -67 -1 -41 -15 19 -15 18
-9 -17 5 -25 1 -56 -11 -93 l-17 -57 -20 59 c-10 32 -20 76 -22 98 -2 22 -9
54 -16 70 l-13 30 -3 -35 c-6 -67 -14 -100 -24 -100 -6 0 -7 5 -4 10 3 6 -3
10 -14 10 -12 0 -21 -4 -21 -10 0 -9 18 -15 65 -22 24 -4 45 -45 52 -102 l5
-41 -44 48 c-46 49 -68 59 -68 31 0 -10 6 -14 15 -11 8 4 17 1 21 -6 4 -7 4
-9 -1 -5 -13 12 -33 -11 -28 -32 4 -15 16 -20 52 -22 l46 -3 6 -70 c3 -38 6
-54 7 -35 4 59 13 79 48 99 34 20 45 41 22 41 -6 0 -22 -10 -35 -22 -13 -12
-26 -19 -29 -16 -8 8 24 68 40 74 16 6 68 -13 78 -29 4 -6 10 -9 13 -5 8 7
-16 48 -28 48 -4 0 -6 -4 -3 -9 4 -5 -4 -7 -16 -3 -15 3 -18 7 -9 10 24 8 60
56 61 80 0 14 -4 21 -11 17 -6 -4 -8 -13 -5 -20 2 -7 -2 -21 -10 -32 -14 -17
-14 -16 -4 7 9 20 4 17 -25 -14 -20 -21 -38 -36 -41 -33 -12 12 11 59 40 79
17 12 34 27 38 33 13 17 9 28 -7 21 -8 -3 -21 -8 -28 -11 -10 -4 -13 2 -9 23
2 16 -3 42 -11 58 -14 27 -15 27 -26 7z"/>
<path d="M1874 1811 c13 -24 34 -41 51 -41 3 0 -5 16 -16 35 -27 45 -57 50
-35 6z"/>
<path d="M1636 1798 c-9 -36 -6 -56 5 -33 7 15 8 12 4 -15 -4 -25 -2 -31 5
-20 12 19 13 90 1 90 -5 0 -11 -10 -15 -22z"/>
<path d="M2014 1772 c8 -24 -12 -41 -25 -21 -5 8 -9 10 -9 4 0 -5 4 -16 9 -24
8 -12 12 -12 25 -2 18 15 21 47 5 57 -7 4 -9 0 -5 -14z"/>
<path d="M1454 1706 c-30 -14 -54 -36 -37 -36 29 0 83 23 83 35 0 18 -6 18
-46 1z"/>
<path d="M884 1564 c11 -58 28 -68 24 -15 -2 27 -9 46 -17 49 -11 4 -12 -3 -7
-34z"/>
<path d="M819 1490 c12 -11 28 -17 34 -13 12 8 -20 33 -42 33 -12 -1 -10 -6 8
-20z"/>
<path d="M1922 1382 c2 -9 8 -17 15 -17 6 0 15 -4 20 -9 5 -5 3 -6 -4 -2 -15
8 -18 -10 -4 -18 13 -9 20 16 10 35 -13 25 -41 33 -37 11z"/>
</g>
</svg>
